<mxfile host="app.diagrams.net" agent="Mozilla/5.0 (Windows NT 10.0; Win64; x64; rv:140.0) Gecko/20100101 Firefox/140.0" version="27.1.5">
  <diagram name="Page-1" id="GUFO7ua8oOKvrelAJ2VL">
    <mxGraphModel dx="2225" dy="1999" grid="1" gridSize="10" guides="1" tooltips="1" connect="1" arrows="1" fold="1" page="1" pageScale="1" pageWidth="850" pageHeight="1100" math="0" shadow="0">
      <root>
        <mxCell id="0" />
        <mxCell id="1" parent="0" />
        <mxCell id="PmBeEeZk402kAwxZ9Y-l-2" value="" style="sketch=0;pointerEvents=1;shadow=0;dashed=0;html=1;strokeColor=none;fillColor=#434445;aspect=fixed;labelPosition=center;verticalLabelPosition=bottom;verticalAlign=top;align=center;outlineConnect=0;shape=mxgraph.vvd.laptop;" vertex="1" parent="1">
          <mxGeometry x="0.28" y="-190" width="97.22" height="70" as="geometry" />
        </mxCell>
        <mxCell id="PmBeEeZk402kAwxZ9Y-l-4" value="" style="image;aspect=fixed;perimeter=ellipsePerimeter;html=1;align=center;shadow=0;dashed=0;spacingTop=3;image=img/lib/active_directory/internet_cloud.svg;" vertex="1" parent="1">
          <mxGeometry x="710" y="-202.25" width="150" height="94.5" as="geometry" />
        </mxCell>
        <mxCell id="PmBeEeZk402kAwxZ9Y-l-70" style="edgeStyle=orthogonalEdgeStyle;rounded=0;orthogonalLoop=1;jettySize=auto;html=1;exitX=0.5;exitY=1;exitDx=0;exitDy=0;entryX=0.5;entryY=0;entryDx=0;entryDy=0;" edge="1" parent="1" source="PmBeEeZk402kAwxZ9Y-l-5" target="PmBeEeZk402kAwxZ9Y-l-69">
          <mxGeometry relative="1" as="geometry" />
        </mxCell>
        <mxCell id="PmBeEeZk402kAwxZ9Y-l-71" value="&lt;font style=&quot;font-size: 14px;&quot;&gt;&lt;b&gt;Egress Traffic&lt;/b&gt;&lt;/font&gt;&lt;font style=&quot;font-size: 13px;&quot;&gt;&lt;br&gt;&lt;br&gt;Different Protocols&lt;br&gt;(OAuth, HTTPS, RESTful API&#39;s etc)&lt;/font&gt;" style="edgeLabel;html=1;align=center;verticalAlign=middle;resizable=0;points=[];" vertex="1" connectable="0" parent="PmBeEeZk402kAwxZ9Y-l-70">
          <mxGeometry x="-0.02" relative="1" as="geometry">
            <mxPoint as="offset" />
          </mxGeometry>
        </mxCell>
        <mxCell id="PmBeEeZk402kAwxZ9Y-l-5" value="" style="rounded=1;html=1;arcSize=15;" vertex="1" parent="1">
          <mxGeometry x="-160" y="90" width="870" height="960" as="geometry" />
        </mxCell>
        <mxCell id="PmBeEeZk402kAwxZ9Y-l-16" value="" style="edgeStyle=orthogonalEdgeStyle;rounded=0;orthogonalLoop=1;jettySize=auto;html=1;entryX=1;entryY=0.5;entryDx=0;entryDy=0;startArrow=classic;startFill=1;" edge="1" parent="1" target="PmBeEeZk402kAwxZ9Y-l-43">
          <mxGeometry relative="1" as="geometry">
            <mxPoint x="800" y="-107.75188344594638" as="sourcePoint" />
            <mxPoint x="720" y="285.42" as="targetPoint" />
            <Array as="points">
              <mxPoint x="800" y="40" />
              <mxPoint x="801" y="40" />
              <mxPoint x="801" y="285" />
            </Array>
          </mxGeometry>
        </mxCell>
        <mxCell id="PmBeEeZk402kAwxZ9Y-l-65" value="&lt;font style=&quot;font-size: 13px;&quot;&gt;HTTP Requests&lt;/font&gt;" style="edgeLabel;html=1;align=center;verticalAlign=middle;resizable=0;points=[];" vertex="1" connectable="0" parent="PmBeEeZk402kAwxZ9Y-l-16">
          <mxGeometry x="-0.1501" y="1" relative="1" as="geometry">
            <mxPoint as="offset" />
          </mxGeometry>
        </mxCell>
        <mxCell id="PmBeEeZk402kAwxZ9Y-l-17" value="&lt;b&gt;&lt;font style=&quot;font-size: 23px;&quot;&gt;Kubernetes Cluster&lt;/font&gt;&lt;/b&gt;" style="text;html=1;align=center;verticalAlign=middle;rounded=0;" vertex="1" parent="1">
          <mxGeometry x="245" y="110" width="60" height="30" as="geometry" />
        </mxCell>
        <mxCell id="PmBeEeZk402kAwxZ9Y-l-18" value="" style="rounded=1;whiteSpace=wrap;html=1;" vertex="1" parent="1">
          <mxGeometry x="-120" y="460" width="250" height="550" as="geometry" />
        </mxCell>
        <mxCell id="PmBeEeZk402kAwxZ9Y-l-19" value="" style="rounded=1;whiteSpace=wrap;html=1;" vertex="1" parent="1">
          <mxGeometry x="425" y="460" width="250" height="550" as="geometry" />
        </mxCell>
        <mxCell id="PmBeEeZk402kAwxZ9Y-l-20" value="" style="rounded=1;whiteSpace=wrap;html=1;" vertex="1" parent="1">
          <mxGeometry x="150" y="460" width="250" height="550" as="geometry" />
        </mxCell>
        <mxCell id="PmBeEeZk402kAwxZ9Y-l-22" value="&lt;b&gt;&lt;font style=&quot;font-size: 20px;&quot;&gt;Node 1&lt;/font&gt;&lt;/b&gt;" style="text;html=1;align=center;verticalAlign=middle;rounded=0;" vertex="1" parent="1">
          <mxGeometry x="-25" y="470" width="60" height="30" as="geometry" />
        </mxCell>
        <mxCell id="PmBeEeZk402kAwxZ9Y-l-23" value="&lt;b&gt;&lt;font style=&quot;font-size: 20px;&quot;&gt;Node 3&lt;/font&gt;&lt;/b&gt;" style="text;html=1;align=center;verticalAlign=middle;rounded=0;" vertex="1" parent="1">
          <mxGeometry x="520" y="470" width="60" height="30" as="geometry" />
        </mxCell>
        <mxCell id="PmBeEeZk402kAwxZ9Y-l-24" value="&lt;b&gt;&lt;font style=&quot;font-size: 20px;&quot;&gt;Node 2&lt;/font&gt;&lt;/b&gt;" style="text;html=1;align=center;verticalAlign=middle;rounded=0;" vertex="1" parent="1">
          <mxGeometry x="245" y="470" width="60" height="30" as="geometry" />
        </mxCell>
        <mxCell id="PmBeEeZk402kAwxZ9Y-l-72" style="edgeStyle=orthogonalEdgeStyle;rounded=0;orthogonalLoop=1;jettySize=auto;html=1;exitX=0.5;exitY=1;exitDx=0;exitDy=0;startArrow=classic;startFill=1;" edge="1" parent="1" source="PmBeEeZk402kAwxZ9Y-l-26" target="PmBeEeZk402kAwxZ9Y-l-37">
          <mxGeometry relative="1" as="geometry" />
        </mxCell>
        <mxCell id="PmBeEeZk402kAwxZ9Y-l-26" value="" style="rounded=1;whiteSpace=wrap;html=1;" vertex="1" parent="1">
          <mxGeometry x="-100" y="510" width="210" height="320" as="geometry" />
        </mxCell>
        <mxCell id="PmBeEeZk402kAwxZ9Y-l-73" style="edgeStyle=orthogonalEdgeStyle;rounded=0;orthogonalLoop=1;jettySize=auto;html=1;exitX=0.5;exitY=1;exitDx=0;exitDy=0;startArrow=classic;startFill=1;" edge="1" parent="1" source="PmBeEeZk402kAwxZ9Y-l-27" target="PmBeEeZk402kAwxZ9Y-l-38">
          <mxGeometry relative="1" as="geometry" />
        </mxCell>
        <mxCell id="PmBeEeZk402kAwxZ9Y-l-27" value="" style="rounded=1;whiteSpace=wrap;html=1;" vertex="1" parent="1">
          <mxGeometry x="170" y="510" width="210" height="320" as="geometry" />
        </mxCell>
        <mxCell id="PmBeEeZk402kAwxZ9Y-l-74" style="edgeStyle=orthogonalEdgeStyle;rounded=0;orthogonalLoop=1;jettySize=auto;html=1;exitX=0.5;exitY=1;exitDx=0;exitDy=0;startArrow=classic;startFill=1;" edge="1" parent="1" source="PmBeEeZk402kAwxZ9Y-l-28" target="PmBeEeZk402kAwxZ9Y-l-39">
          <mxGeometry relative="1" as="geometry" />
        </mxCell>
        <mxCell id="PmBeEeZk402kAwxZ9Y-l-28" value="" style="rounded=1;html=1;" vertex="1" parent="1">
          <mxGeometry x="445" y="510" width="210" height="320" as="geometry" />
        </mxCell>
        <mxCell id="PmBeEeZk402kAwxZ9Y-l-29" value="&lt;font style=&quot;font-size: 14px;&quot;&gt;POD&lt;br&gt;&lt;i&gt;blog-pod&lt;/i&gt;&lt;/font&gt;" style="text;html=1;align=center;verticalAlign=middle;rounded=0;fontStyle=1" vertex="1" parent="1">
          <mxGeometry x="-25" y="530" width="60" height="30" as="geometry" />
        </mxCell>
        <mxCell id="PmBeEeZk402kAwxZ9Y-l-30" value="&lt;font style=&quot;font-size: 14px;&quot;&gt;POD&lt;br&gt;&lt;i&gt;game-pod&lt;/i&gt;&lt;/font&gt;" style="text;html=1;align=center;verticalAlign=middle;rounded=0;fontStyle=1" vertex="1" parent="1">
          <mxGeometry x="245" y="530" width="60" height="30" as="geometry" />
        </mxCell>
        <mxCell id="PmBeEeZk402kAwxZ9Y-l-31" value="&lt;font style=&quot;font-size: 14px;&quot;&gt;POD&lt;br&gt;&lt;i&gt;database-pod&lt;/i&gt;&lt;/font&gt;" style="text;html=1;align=center;verticalAlign=middle;rounded=0;fontStyle=1" vertex="1" parent="1">
          <mxGeometry x="520" y="530" width="60" height="30" as="geometry" />
        </mxCell>
        <mxCell id="PmBeEeZk402kAwxZ9Y-l-33" value="" style="points=[];aspect=fixed;html=1;align=center;shadow=0;dashed=0;fillColor=#FF6A00;strokeColor=none;shape=mxgraph.alibaba_cloud.acr_cloud_container_registry;" vertex="1" parent="1">
          <mxGeometry x="-41.620000000000005" y="615.9" width="93.24" height="108.2" as="geometry" />
        </mxCell>
        <mxCell id="PmBeEeZk402kAwxZ9Y-l-34" value="" style="points=[];aspect=fixed;html=1;align=center;shadow=0;dashed=0;fillColor=#FF6A00;strokeColor=none;shape=mxgraph.alibaba_cloud.acr_cloud_container_registry;" vertex="1" parent="1">
          <mxGeometry x="228.38" y="615.9" width="93.24" height="108.2" as="geometry" />
        </mxCell>
        <mxCell id="PmBeEeZk402kAwxZ9Y-l-35" value="" style="points=[];aspect=fixed;html=1;align=center;shadow=0;dashed=0;fillColor=#FF6A00;strokeColor=none;shape=mxgraph.alibaba_cloud.acr_cloud_container_registry;" vertex="1" parent="1">
          <mxGeometry x="503.38000000000005" y="615.9" width="93.24" height="108.2" as="geometry" />
        </mxCell>
        <mxCell id="PmBeEeZk402kAwxZ9Y-l-37" value="" style="shadow=0;dashed=0;html=1;strokeColor=none;fillColor=#4495D1;labelPosition=center;verticalLabelPosition=bottom;verticalAlign=top;align=center;outlineConnect=0;shape=mxgraph.veeam.2d.datastore_volume;" vertex="1" parent="1">
          <mxGeometry x="-85" y="880" width="180" height="40" as="geometry" />
        </mxCell>
        <mxCell id="PmBeEeZk402kAwxZ9Y-l-38" value="" style="shadow=0;dashed=0;html=1;strokeColor=none;fillColor=#4495D1;labelPosition=center;verticalLabelPosition=bottom;verticalAlign=top;align=center;outlineConnect=0;shape=mxgraph.veeam.2d.datastore_volume;" vertex="1" parent="1">
          <mxGeometry x="185" y="880" width="180" height="40" as="geometry" />
        </mxCell>
        <mxCell id="PmBeEeZk402kAwxZ9Y-l-39" value="" style="shadow=0;dashed=0;html=1;strokeColor=none;fillColor=#4495D1;labelPosition=center;verticalLabelPosition=bottom;verticalAlign=top;align=center;outlineConnect=0;shape=mxgraph.veeam.2d.datastore_volume;" vertex="1" parent="1">
          <mxGeometry x="460" y="880" width="180" height="40" as="geometry" />
        </mxCell>
        <mxCell id="PmBeEeZk402kAwxZ9Y-l-40" value="&lt;font style=&quot;font-size: 14px;&quot;&gt;Container&lt;br&gt;nginx&lt;br&gt;(port 80)&lt;/font&gt;" style="text;html=1;align=center;verticalAlign=middle;rounded=0;" vertex="1" parent="1">
          <mxGeometry x="-25" y="740" width="60" height="30" as="geometry" />
        </mxCell>
        <mxCell id="PmBeEeZk402kAwxZ9Y-l-41" value="&lt;font style=&quot;font-size: 14px;&quot;&gt;Container&lt;br&gt;game server&lt;br&gt;(port 8080)&lt;/font&gt;" style="text;html=1;align=center;verticalAlign=middle;rounded=0;" vertex="1" parent="1">
          <mxGeometry x="245" y="740" width="60" height="30" as="geometry" />
        </mxCell>
        <mxCell id="PmBeEeZk402kAwxZ9Y-l-42" value="&lt;font style=&quot;font-size: 14px;&quot;&gt;Container&lt;br&gt;postgresql&lt;br&gt;(port 5432)&lt;/font&gt;" style="text;html=1;align=center;verticalAlign=middle;rounded=0;" vertex="1" parent="1">
          <mxGeometry x="520" y="740" width="60" height="30" as="geometry" />
        </mxCell>
        <mxCell id="PmBeEeZk402kAwxZ9Y-l-60" style="edgeStyle=orthogonalEdgeStyle;rounded=0;orthogonalLoop=1;jettySize=auto;html=1;exitX=0.5;exitY=1;exitDx=0;exitDy=0;entryX=0.5;entryY=0;entryDx=0;entryDy=0;startArrow=classic;startFill=1;" edge="1" parent="1" source="PmBeEeZk402kAwxZ9Y-l-43" target="PmBeEeZk402kAwxZ9Y-l-20">
          <mxGeometry relative="1" as="geometry" />
        </mxCell>
        <mxCell id="PmBeEeZk402kAwxZ9Y-l-61" style="edgeStyle=orthogonalEdgeStyle;rounded=0;orthogonalLoop=1;jettySize=auto;html=1;exitX=0.75;exitY=1;exitDx=0;exitDy=0;entryX=0.5;entryY=0;entryDx=0;entryDy=0;startArrow=classic;startFill=1;" edge="1" parent="1" source="PmBeEeZk402kAwxZ9Y-l-43" target="PmBeEeZk402kAwxZ9Y-l-19">
          <mxGeometry relative="1" as="geometry" />
        </mxCell>
        <mxCell id="PmBeEeZk402kAwxZ9Y-l-43" value="&lt;font style=&quot;font-size: 16px;&quot;&gt;Blog Service &amp;lt;=&amp;gt; Blog Pods&lt;br&gt;Game Service &amp;lt;=&amp;gt; Game Pods&lt;br&gt;Load balancer Service &amp;lt;=&amp;gt; Traffic Routing&lt;/font&gt;" style="rounded=1;whiteSpace=wrap;html=1;" vertex="1" parent="1">
          <mxGeometry x="390" y="190" width="305" height="190" as="geometry" />
        </mxCell>
        <mxCell id="PmBeEeZk402kAwxZ9Y-l-53" value="" style="edgeStyle=orthogonalEdgeStyle;rounded=0;orthogonalLoop=1;jettySize=auto;html=1;startArrow=classic;startFill=1;" edge="1" parent="1" source="PmBeEeZk402kAwxZ9Y-l-43" target="PmBeEeZk402kAwxZ9Y-l-44">
          <mxGeometry relative="1" as="geometry" />
        </mxCell>
        <mxCell id="PmBeEeZk402kAwxZ9Y-l-62" value="&lt;font style=&quot;font-size: 12px;&quot;&gt;Kubectl API calls&lt;br&gt;(HTTPS / JSON)&lt;/font&gt;" style="edgeLabel;html=1;align=center;verticalAlign=middle;resizable=0;points=[];" vertex="1" connectable="0" parent="PmBeEeZk402kAwxZ9Y-l-53">
          <mxGeometry x="0.1386" y="-3" relative="1" as="geometry">
            <mxPoint as="offset" />
          </mxGeometry>
        </mxCell>
        <mxCell id="PmBeEeZk402kAwxZ9Y-l-63" style="edgeStyle=orthogonalEdgeStyle;rounded=0;orthogonalLoop=1;jettySize=auto;html=1;entryX=0.5;entryY=0;entryDx=0;entryDy=0;" edge="1" parent="1" source="PmBeEeZk402kAwxZ9Y-l-2" target="PmBeEeZk402kAwxZ9Y-l-44">
          <mxGeometry relative="1" as="geometry" />
        </mxCell>
        <mxCell id="PmBeEeZk402kAwxZ9Y-l-64" value="&lt;font style=&quot;font-size: 12px;&quot;&gt;kubectl apply&lt;br&gt;kubectl get&lt;br&gt;kubectl logs&lt;br&gt;(HTTPS API calls)&lt;/font&gt;" style="edgeLabel;html=1;align=center;verticalAlign=middle;resizable=0;points=[];" vertex="1" connectable="0" parent="PmBeEeZk402kAwxZ9Y-l-63">
          <mxGeometry x="-0.2571" y="-6" relative="1" as="geometry">
            <mxPoint x="10" y="14" as="offset" />
          </mxGeometry>
        </mxCell>
        <mxCell id="PmBeEeZk402kAwxZ9Y-l-44" value="" style="rounded=1;whiteSpace=wrap;html=1;" vertex="1" parent="1">
          <mxGeometry x="-100" y="190" width="305" height="190" as="geometry" />
        </mxCell>
        <mxCell id="PmBeEeZk402kAwxZ9Y-l-45" value="&lt;b&gt;&lt;font style=&quot;font-size: 16px;&quot;&gt;Control Plane Node&lt;/font&gt;&lt;/b&gt;" style="text;html=1;align=center;verticalAlign=middle;rounded=0;" vertex="1" parent="1">
          <mxGeometry x="62.5" y="210" width="60" height="30" as="geometry" />
        </mxCell>
        <mxCell id="PmBeEeZk402kAwxZ9Y-l-46" value="&lt;font style=&quot;font-size: 16px;&quot;&gt;&lt;b&gt;Services&lt;/b&gt;&lt;/font&gt;" style="text;html=1;align=center;verticalAlign=middle;rounded=0;" vertex="1" parent="1">
          <mxGeometry x="445" y="210" width="60" height="30" as="geometry" />
        </mxCell>
        <mxCell id="PmBeEeZk402kAwxZ9Y-l-49" value="&lt;br&gt;kube-apiserver&lt;br&gt;&lt;div&gt;(port 6443)&lt;/div&gt;" style="rounded=1;whiteSpace=wrap;html=1;" vertex="1" parent="1">
          <mxGeometry x="-90" y="240" width="90" height="60" as="geometry" />
        </mxCell>
        <mxCell id="PmBeEeZk402kAwxZ9Y-l-50" value="kube-controller manager" style="rounded=1;whiteSpace=wrap;html=1;" vertex="1" parent="1">
          <mxGeometry x="108.61" y="240" width="90" height="60" as="geometry" />
        </mxCell>
        <mxCell id="PmBeEeZk402kAwxZ9Y-l-51" value="kube-scheduler" style="rounded=1;whiteSpace=wrap;html=1;" vertex="1" parent="1">
          <mxGeometry x="7.5" y="240" width="90" height="60" as="geometry" />
        </mxCell>
        <mxCell id="PmBeEeZk402kAwxZ9Y-l-52" value="etcd&lt;br&gt;(cluster database)" style="rounded=1;whiteSpace=wrap;html=1;" vertex="1" parent="1">
          <mxGeometry x="-17.5" y="310" width="220" height="50" as="geometry" />
        </mxCell>
        <mxCell id="PmBeEeZk402kAwxZ9Y-l-59" style="edgeStyle=orthogonalEdgeStyle;rounded=0;orthogonalLoop=1;jettySize=auto;html=1;exitX=0.25;exitY=1;exitDx=0;exitDy=0;entryX=0.476;entryY=-0.009;entryDx=0;entryDy=0;entryPerimeter=0;startArrow=classic;startFill=1;" edge="1" parent="1" source="PmBeEeZk402kAwxZ9Y-l-43" target="PmBeEeZk402kAwxZ9Y-l-18">
          <mxGeometry relative="1" as="geometry">
            <Array as="points">
              <mxPoint x="466" y="400" />
              <mxPoint x="-1" y="400" />
            </Array>
          </mxGeometry>
        </mxCell>
        <mxCell id="PmBeEeZk402kAwxZ9Y-l-66" value="&lt;div&gt;&lt;font style=&quot;font-size: 14px;&quot;&gt;Volume&lt;/font&gt;&lt;/div&gt;&lt;div&gt;&lt;font style=&quot;font-size: 14px;&quot;&gt;blog-store&lt;/font&gt;&lt;/div&gt;" style="text;html=1;align=center;verticalAlign=middle;rounded=0;" vertex="1" parent="1">
          <mxGeometry x="-25" y="930" width="60" height="30" as="geometry" />
        </mxCell>
        <mxCell id="PmBeEeZk402kAwxZ9Y-l-67" value="&lt;div&gt;&lt;font style=&quot;font-size: 14px;&quot;&gt;Volume&lt;/font&gt;&lt;/div&gt;&lt;div&gt;&lt;font style=&quot;font-size: 14px;&quot;&gt;game-store&lt;/font&gt;&lt;/div&gt;" style="text;html=1;align=center;verticalAlign=middle;rounded=0;" vertex="1" parent="1">
          <mxGeometry x="245" y="930" width="60" height="30" as="geometry" />
        </mxCell>
        <mxCell id="PmBeEeZk402kAwxZ9Y-l-68" value="&lt;div&gt;&lt;font style=&quot;font-size: 14px;&quot;&gt;Volume&lt;/font&gt;&lt;/div&gt;&lt;div&gt;&lt;font style=&quot;font-size: 14px;&quot;&gt;data-store&lt;/font&gt;&lt;/div&gt;" style="text;html=1;align=center;verticalAlign=middle;rounded=0;" vertex="1" parent="1">
          <mxGeometry x="520" y="930" width="60" height="30" as="geometry" />
        </mxCell>
        <mxCell id="PmBeEeZk402kAwxZ9Y-l-69" value="&lt;div&gt;&lt;b&gt;&lt;font style=&quot;font-size: 17px;&quot;&gt;External API&#39;s&lt;br&gt;&lt;br&gt;&lt;/font&gt;&lt;/b&gt;&lt;/div&gt;&lt;div&gt;&lt;font style=&quot;font-size: 14px;&quot;&gt;Payment Gateways&lt;br&gt;CDN&#39;s&lt;br&gt;Auth Services&lt;/font&gt;&lt;/div&gt;" style="rounded=1;whiteSpace=wrap;html=1;" vertex="1" parent="1">
          <mxGeometry x="207.5" y="1150" width="135" height="180" as="geometry" />
        </mxCell>
      </root>
    </mxGraphModel>
  </diagram>
</mxfile>
